<svg width="1920" height="500" viewBox="0 0 1920 500" fill="none" xmlns="http://www.w3.org/2000/svg">
<g clip-path="url(#clip0_4_508)">
<mask id="path-1-inside-1_4_508" fill="white">
<path d="M0 0H1920V500H0V0Z"/>
</mask>
<path d="M0 0H1920V500H0V0Z" fill="#FE7E48"/>
<path d="M277.874 480.159C277.915 479.037 277.943 477.915 277.958 476.792C278.205 461.359 276.415 445.899 272.663 430.933C268.014 412.408 257.22 402.857 237.722 403.427C203.989 404.418 172.696 423.136 149.686 447.82C144.664 453.205 139.875 459.031 137.325 465.941C134.775 472.851 134.777 481.056 138.938 487.13C144.757 495.637 156.408 497.516 166.715 497.772C177.023 498.028 188.229 497.695 196.502 503.851C205.884 510.829 208.43 523.927 216.505 532.383C225.856 542.162 242.023 543.827 253.97 537.47C273.571 527.046 277.169 500.178 277.874 480.172L277.874 480.159Z" fill="#E67241"/>
<path d="M307.257 459.527C307.744 460.156 308.272 460.737 308.84 461.269C313.99 466.203 322.017 467.556 329.244 466.757C339.625 465.609 350.492 460.848 358.688 454.541C363.85 450.57 368.838 446.155 372.147 440.543C375.455 434.932 376.887 427.905 374.627 421.802C366.047 398.596 334.919 410.802 321.478 420.843C315.32 425.442 309.4 430.753 306.079 437.677C302.759 444.601 302.534 453.458 307.263 459.521L307.257 459.527Z" fill="#E67241"/>
<path d="M272.568 385.806C271.322 394.627 274.179 404.502 281.533 409.541C282.291 410.056 283.077 410.523 283.891 410.915C291.311 414.568 300.67 413.252 308.375 409.837C319.452 404.923 329.799 395.852 336.653 386.015C340.968 379.814 344.944 373.186 346.632 365.819C348.32 358.451 347.444 350.185 342.804 344.221C325.185 321.558 295.042 345.967 283.693 361.794C278.502 369.033 273.814 376.984 272.568 385.806Z" fill="#E67241"/>
<path d="M198.768 348.526C195.958 341.513 192.603 334.55 187.371 329.088C182.145 323.632 174.759 319.816 167.225 320.424C138.614 322.701 142.448 361.296 149.443 379.472C152.64 387.784 156.715 396.07 163.397 401.96C170.079 407.851 179.908 410.88 188.159 407.51C189.009 407.159 189.823 406.756 190.603 406.301C197.732 402.108 201.773 393.564 203.153 385.248C205.134 373.299 203.239 359.658 198.781 348.527L198.768 348.526Z" fill="#E67241"/>
<path d="M267.962 291.644C240.211 274.603 217.928 312.545 212.187 333.877C209.558 343.643 207.749 353.952 209.938 363.821C212.126 373.689 219.105 383.033 228.925 385.456C229.935 385.706 230.956 385.875 231.98 385.98C241.315 386.903 250.73 381.777 257.556 375.064C267.361 365.437 274.737 351.668 278.089 338.484C280.201 330.178 281.778 321.549 280.635 313.056C279.492 304.563 275.267 296.125 267.962 291.644Z" fill="#E67241"/>
<path d="M119.992 191.588C119.201 190.815 118.401 190.05 117.592 189.295C106.501 178.88 94.0386 169.933 80.6358 162.744C64.0428 153.85 49.9194 155.388 37.4044 169.986C15.7579 195.245 8.65661 230.478 11.3987 263.629C11.9963 270.862 13.0685 278.218 16.417 284.66C19.7655 291.103 25.7506 296.543 32.9397 297.536C43.0027 298.933 52.099 291.683 59.1212 284.335C66.1433 276.988 73.3324 268.595 83.3076 266.644C94.6186 264.429 105.859 271.258 117.381 270.977C130.714 270.643 142.649 259.956 145.936 247.027C151.332 225.82 134.124 205.378 120 191.597L119.992 191.588Z" fill="#E67241"/>
<path d="M124.43 156.477C125.212 156.539 125.986 156.539 126.75 156.477C133.764 155.994 140.074 151.037 144.284 145.236C150.33 136.905 154.065 125.822 154.9 115.663C155.428 109.264 155.516 102.699 153.617 96.5648C151.719 90.4303 147.544 84.7265 141.594 82.3271C118.981 73.1957 107.239 103.991 105.649 120.452C104.919 127.993 104.866 135.833 107.714 142.846C110.561 149.859 116.872 155.897 124.43 156.468V156.477Z" fill="#E67241"/>
<path d="M47.6602 132.889C53.2674 139.647 62.3636 144.112 70.915 142.091C71.7939 141.88 72.6552 141.616 73.4813 141.282C81.066 138.294 86.3128 130.595 88.9318 122.711C92.6934 111.374 92.9394 97.8132 90.3116 86.2912C88.6506 79.0318 86.4534 71.7372 82.1997 65.6203C77.946 59.5033 71.3369 54.6608 63.9105 54.0895C35.6988 51.9099 33.5104 90.0791 37.5269 108.852C39.3637 117.438 42.053 126.13 47.6602 132.889Z" fill="#E67241"/>
<path d="M-28.4674 161.988C-35.4456 159.386 -42.749 157.215 -50.2018 157.409C-57.6458 157.602 -65.3271 160.458 -69.8796 166.356C-87.1933 188.732 -56.5033 211.529 -38.6095 218.481C-30.4273 221.663 -21.6825 224.185 -12.9554 223.218C-4.22824 222.252 4.49892 217.093 7.51343 208.84C7.82103 207.988 8.06711 207.126 8.25167 206.256C9.92152 198.276 6.3709 189.663 1.22073 183.142C-6.17933 173.773 -17.3849 166.11 -28.4586 161.979L-28.4674 161.988Z" fill="#E67241"/>
<path d="M-24.0647 73.8029C-54.8954 82.741 -42.0024 124.153 -30.2519 142.486C-24.8733 150.88 -18.5542 159.035 -9.90615 163.983C-1.25809 168.932 10.1848 170.039 18.4637 164.484C19.3162 163.913 20.116 163.28 20.8718 162.604C27.7358 156.408 30.2405 146.142 29.8714 136.712C29.3529 123.178 24.2027 108.668 16.8114 97.4796C12.1534 90.4311 6.90659 83.5583 -0.0452538 78.7597C-6.99709 73.9611 -15.9528 71.4475 -24.0647 73.8029Z" fill="#E67241"/>
<path d="M1782.37 379.85C1781.51 379.008 1780.64 378.175 1779.75 377.352C1767.67 366.009 1754.1 356.265 1739.5 348.435C1721.43 338.748 1706.05 340.424 1692.42 356.322C1668.84 383.832 1661.11 422.206 1664.1 458.311C1664.75 466.189 1665.92 474.201 1669.56 481.217C1673.21 488.233 1679.73 494.158 1687.56 495.24C1698.52 496.762 1708.42 488.865 1716.07 480.863C1723.72 472.861 1731.55 463.719 1742.41 461.594C1754.73 459.182 1766.98 466.62 1779.52 466.313C1794.05 465.95 1807.04 454.31 1810.62 440.23C1816.5 417.133 1797.76 394.869 1782.38 379.86L1782.37 379.85Z" fill="#E67241"/>
<path d="M1787.2 341.61C1788.05 341.677 1788.9 341.677 1789.73 341.61C1797.37 341.084 1804.24 335.685 1808.82 329.368C1815.41 320.293 1819.48 308.223 1820.39 297.158C1820.96 290.19 1821.06 283.039 1818.99 276.358C1816.92 269.677 1812.38 263.465 1805.9 260.852C1781.27 250.906 1768.48 284.446 1766.75 302.375C1765.95 310.587 1765.89 319.126 1769 326.764C1772.1 334.402 1778.97 340.978 1787.2 341.6V341.61Z" fill="#E67241"/>
<path d="M1703.59 315.919C1709.7 323.28 1719.61 328.143 1728.92 325.941C1729.88 325.711 1730.81 325.424 1731.71 325.061C1739.97 321.806 1745.69 313.421 1748.54 304.835C1752.64 292.487 1752.91 277.718 1750.04 265.169C1748.24 257.263 1745.84 249.318 1741.21 242.656C1736.58 235.994 1729.38 230.72 1721.29 230.097C1690.56 227.724 1688.18 269.295 1692.56 289.74C1694.56 299.092 1697.48 308.559 1703.59 315.919Z" fill="#E67241"/>
<path d="M1620.68 347.612C1613.08 344.778 1605.13 342.414 1597.01 342.625C1588.9 342.835 1580.53 345.946 1575.58 352.369C1556.72 376.739 1590.15 401.569 1609.63 409.14C1618.55 412.605 1628.07 415.352 1637.57 414.299C1647.08 413.246 1656.58 407.628 1659.87 398.64C1660.2 397.711 1660.47 396.773 1660.67 395.825C1662.49 387.134 1658.62 377.754 1653.01 370.651C1644.95 360.448 1632.75 352.101 1620.69 347.602L1620.68 347.612Z" fill="#E67241"/>
<path d="M1625.47 251.568C1591.9 261.302 1605.94 306.405 1618.74 326.372C1624.59 335.513 1631.48 344.396 1640.9 349.785C1650.31 355.174 1662.78 356.38 1671.79 350.331C1672.72 349.709 1673.59 349.019 1674.42 348.282C1681.89 341.534 1684.62 330.354 1684.22 320.084C1683.65 305.343 1678.04 289.54 1669.99 277.354C1664.92 269.678 1659.21 262.193 1651.63 256.966C1644.06 251.74 1634.31 249.002 1625.47 251.568Z" fill="#E67241"/>
<path d="M1898.51 169.166C1898.64 168.364 1898.76 167.56 1898.86 166.755C1900.36 155.688 1900.4 144.427 1898.98 133.354C1897.23 119.647 1890.29 111.862 1876.23 110.603C1851.91 108.429 1827.83 119.2 1809.18 134.965C1805.12 138.405 1801.18 142.18 1798.75 146.927C1796.33 151.673 1795.63 157.568 1798.1 162.288C1801.55 168.897 1809.76 171.244 1817.15 172.31C1824.53 173.376 1832.61 174.095 1838.03 179.226C1844.17 185.042 1844.88 194.67 1849.96 201.436C1855.84 209.262 1867.31 211.84 1876.44 208.296C1891.41 202.484 1896.3 183.488 1898.51 169.175L1898.51 169.166Z" fill="#E67241"/>
<path d="M1921.39 156.856C1921.69 157.35 1922.02 157.812 1922.38 158.243C1925.66 162.229 1931.31 163.888 1936.57 163.932C1944.12 163.995 1952.34 161.505 1958.77 157.674C1962.82 155.263 1966.78 152.518 1969.63 148.769C1972.49 145.021 1974.12 140.095 1973.02 135.517C1968.84 118.111 1945.43 124.217 1934.92 130.28C1930.1 133.058 1925.39 136.367 1922.41 141.057C1919.44 145.748 1918.52 152.092 1921.4 156.853L1921.39 156.856Z" fill="#E67241"/>
<path d="M1902.77 100.924C1901.12 107.155 1902.33 114.494 1907.18 118.743C1907.69 119.179 1908.21 119.581 1908.76 119.933C1913.78 123.192 1920.62 123.047 1926.44 121.253C1934.82 118.67 1943.03 113.038 1948.8 106.558C1952.43 102.471 1955.85 98.0499 1957.7 92.901C1959.54 87.7522 1959.62 81.7388 1956.79 77.057C1946.07 59.2677 1922.33 74.225 1912.82 84.625C1908.47 89.3818 1904.42 94.6931 1902.77 100.924Z" fill="#E67241"/>
<path d="M1852.94 67.827C1851.52 62.548 1849.71 57.2581 1846.42 52.8864C1843.13 48.5199 1838.15 45.1464 1832.69 44.9386C1811.93 44.1264 1811.39 72.183 1814.86 85.8395C1816.44 92.0853 1818.66 98.3864 1822.96 103.19C1827.26 107.994 1834.06 111.011 1840.27 109.296C1840.92 109.117 1841.53 108.897 1842.13 108.636C1847.61 106.234 1851.25 100.441 1852.95 94.5845C1855.4 86.1696 1855.2 76.2069 1852.95 67.8285L1852.94 67.827Z" fill="#E67241"/>
<path d="M1907.52 32.8799C1889.04 18.263 1869.79 43.6156 1863.84 58.4505C1861.11 65.2417 1858.93 72.4937 1859.66 79.7707C1860.39 87.0477 1864.6 94.3583 1871.45 96.9392C1872.15 97.2052 1872.87 97.4136 1873.6 97.5769C1880.23 99.0388 1887.43 96.1614 1892.91 91.9222C1900.78 85.8448 1907.25 76.5836 1910.79 67.3987C1913.02 61.6113 1914.89 55.5468 1914.79 49.3472C1914.7 43.1477 1912.39 36.7243 1907.52 32.8799Z" fill="#E67241"/>
<path d="M809.638 412.505C808.831 412.598 808.026 412.7 807.221 412.81C796.154 414.307 785.289 417.265 774.989 421.571C762.242 426.906 756.58 435.663 759.102 449.55C763.47 473.573 780.253 493.928 800.406 507.712C804.803 510.72 809.489 513.514 814.709 514.589C819.929 515.663 825.798 514.773 829.692 511.137C835.146 506.052 835.227 497.514 834.292 490.113C833.357 482.711 831.904 474.731 835.411 468.146C839.385 460.677 848.478 457.435 853.652 450.742C859.633 442.993 859.07 431.247 853.228 423.39C843.645 410.499 824.035 410.838 809.647 412.504L809.638 412.505Z" fill="#E67241"/>
<path d="M791.692 393.724C792.089 393.307 792.447 392.866 792.766 392.402C795.737 388.183 795.835 382.294 794.479 377.211C792.532 369.91 787.948 362.652 782.547 357.473C779.147 354.211 775.448 351.122 771.075 349.364C766.702 347.605 761.52 347.343 757.399 349.622C741.73 358.276 753.836 379.22 762.477 387.746C766.434 391.652 770.876 395.311 776.189 396.936C781.502 398.56 787.863 397.761 791.687 393.72L791.692 393.724Z" fill="#E67241"/>
<path d="M742.717 426.534C749.163 426.469 755.917 423.354 758.724 417.547C759.011 416.949 759.259 416.336 759.451 415.711C761.26 410.008 759.303 403.455 756.025 398.314C751.308 390.923 743.697 384.505 735.918 380.668C731.013 378.254 725.841 376.129 720.388 375.72C714.934 375.312 709.116 376.835 705.353 380.801C691.052 395.862 711.781 414.778 724.334 421.18C730.076 424.108 736.272 426.6 742.717 426.534Z" fill="#E67241"/>
<path d="M724.054 483.369C719.342 486.14 714.724 489.296 711.385 493.63C708.049 497.96 706.12 503.658 707.372 508.981C712.103 529.202 739.296 522.273 751.54 515.298C757.14 512.11 762.624 508.296 766.114 502.878C769.603 497.459 770.704 490.099 767.399 484.562C767.055 483.992 766.679 483.453 766.268 482.945C762.496 478.3 755.946 476.336 749.847 476.251C741.085 476.129 731.532 478.965 724.053 483.36L724.054 483.369Z" fill="#E67241"/>
<path d="M675.859 440.039C666.678 461.739 696.236 473.565 712.119 475.358C719.39 476.18 726.961 476.356 733.783 473.72C740.605 471.084 746.532 465.079 747.201 457.791C747.27 457.041 747.28 456.293 747.244 455.549C746.892 448.771 742.204 442.592 736.662 438.437C728.712 432.467 718.062 428.684 708.268 427.715C702.097 427.106 695.753 426.913 689.801 428.652C683.85 430.39 678.272 434.328 675.859 440.039Z" fill="#E67241"/>
<path d="M912.618 334.668C912.467 334.152 912.311 333.638 912.148 333.126C909.935 326.077 906.791 319.322 902.831 313.088C897.927 305.372 891.584 302.659 882.811 305.856C867.634 311.391 856.237 324.611 849.503 339.294C848.033 342.497 846.735 345.866 846.618 349.39C846.5 352.913 847.738 356.641 850.544 358.774C854.47 361.762 860.046 360.86 864.768 359.422C869.49 357.985 874.531 356.145 879.217 357.695C884.532 359.452 887.663 365.019 892.606 367.644C898.328 370.678 905.924 368.998 910.394 364.309C917.728 356.619 915.314 343.869 912.619 334.674L912.618 334.668Z" fill="#E67241"/>
<path d="M922.858 320.865C923.174 321.078 923.501 321.262 923.84 321.418C926.923 322.884 930.774 322.289 933.937 320.837C938.48 318.751 942.7 314.95 945.473 310.849C947.22 308.267 948.821 305.509 949.479 302.461C950.136 299.413 949.728 296.005 947.781 293.572C940.386 284.322 928.082 294.559 923.489 301.146C921.384 304.164 919.495 307.469 919.03 311.115C918.564 314.762 919.797 318.82 922.86 320.862L922.858 320.865Z" fill="#E67241"/>
<path d="M895.987 292.599C896.75 296.795 899.537 300.851 903.637 302.032C904.059 302.152 904.487 302.245 904.916 302.301C908.837 302.843 912.891 300.834 915.877 298.121C920.169 294.219 923.503 288.539 925.135 283.036C926.161 279.569 926.968 275.958 926.625 272.356C926.282 268.754 924.638 265.131 921.631 263.121C910.211 255.479 900.194 271.112 897.423 280.013C896.155 284.084 895.223 288.404 895.987 292.599Z" fill="#E67241"/>
<path d="M856.838 286.784C854.504 284.021 851.93 281.363 848.73 279.67C845.534 277.979 841.603 277.358 838.272 278.77C825.615 284.116 833.174 301.073 839.091 308.277C841.796 311.572 844.897 314.722 848.82 316.392C852.744 318.061 857.666 317.956 860.907 315.181C861.24 314.894 861.55 314.588 861.835 314.264C864.442 311.284 864.991 306.793 864.364 302.807C863.464 297.08 860.547 291.168 856.844 286.782L856.838 286.784Z" fill="#E67241"/>
<path d="M879.703 250.511C864.527 246.951 860.12 267.548 860.727 278.105C861.004 282.939 861.736 287.895 864.218 292.049C866.699 296.202 871.278 299.396 876.105 299.017C876.602 298.979 877.091 298.901 877.572 298.795C881.953 297.807 885.457 294.06 887.547 289.981C890.551 284.129 891.827 276.762 891.364 270.267C891.071 266.174 890.487 262.016 888.688 258.33C886.889 254.643 883.697 251.446 879.703 250.511Z" fill="#E67241"/>
</g>
<path d="M0 3H1920V-3H0V3Z" fill="black" mask="url(#path-1-inside-1_4_508)"/>
<defs>
<clipPath id="clip0_4_508">
<path d="M0 0H1920V500H0V0Z" fill="white"/>
</clipPath>
</defs>
</svg>
