<svg width="124" height="32" viewBox="0 0 124 32" fill="none" xmlns="http://www.w3.org/2000/svg">
<path d="M12.6787 9.73486L21.1334 23.8853H4.22397L12.6787 9.73486Z" fill="white"/>
<path d="M26.719 16.9729L19.7842 5.53739L33.6537 5.53739L26.719 16.9729Z" fill="white"/>
<path d="M110.287 15.5571C110.287 14.2484 110.582 13.0964 111.172 12.101C111.78 11.1056 112.6 10.3315 113.633 9.7785C114.665 9.20709 115.835 8.92139 117.144 8.92139C118.453 8.92139 119.614 9.20709 120.628 9.7785C121.66 10.3315 122.48 11.1056 123.089 12.101C123.697 13.0964 124.001 14.2484 124.001 15.5571C124.001 16.8474 123.697 17.9994 123.089 19.0132C122.48 20.0086 121.66 20.7919 120.628 21.3634C119.614 21.9163 118.453 22.1928 117.144 22.1928C115.835 22.1928 114.665 21.9163 113.633 21.3634C112.6 20.7919 111.78 20.0086 111.172 19.0132C110.582 17.9994 110.287 16.8474 110.287 15.5571ZM113.356 15.5571C113.356 16.3497 113.522 17.0501 113.854 17.6584C114.186 18.2483 114.637 18.7183 115.209 19.0685C115.78 19.4003 116.425 19.5662 117.144 19.5662C117.844 19.5662 118.48 19.4003 119.052 19.0685C119.642 18.7183 120.102 18.2483 120.434 17.6584C120.766 17.0501 120.932 16.3497 120.932 15.5571C120.932 14.7645 120.766 14.0641 120.434 13.4558C120.102 12.8475 119.642 12.3775 119.052 12.0457C118.48 11.7139 117.844 11.548 117.144 11.548C116.425 11.548 115.78 11.7139 115.209 12.0457C114.637 12.3775 114.186 12.8475 113.854 13.4558C113.522 14.0641 113.356 14.7645 113.356 15.5571Z" fill="white"/>
<path d="M96.5996 9.19897H99.8622L103.18 17.4107L106.498 9.19897H109.788L103.18 23.0787L96.5996 9.19897Z" fill="white"/>
<path d="M82.3945 15.5571C82.3945 14.2484 82.6895 13.0964 83.2793 12.101C83.8876 11.1056 84.7078 10.3315 85.74 9.7785C86.7723 9.20709 87.9427 8.92139 89.2514 8.92139C90.5601 8.92139 91.7214 9.20709 92.7352 9.7785C93.7674 10.3315 94.5877 11.1056 95.1959 12.101C95.8042 13.0964 96.1083 14.2484 96.1083 15.5571C96.1083 16.8474 95.8042 17.9994 95.1959 19.0132C94.5877 20.0086 93.7674 20.7919 92.7352 21.3634C91.7214 21.9163 90.5601 22.1928 89.2514 22.1928C87.9427 22.1928 86.7723 21.9163 85.74 21.3634C84.7078 20.7919 83.8876 20.0086 83.2793 19.0132C82.6895 17.9994 82.3945 16.8474 82.3945 15.5571ZM85.4635 15.5571C85.4635 16.3497 85.6294 17.0501 85.9612 17.6584C86.293 18.2483 86.7446 18.7183 87.316 19.0685C87.8874 19.4003 88.5326 19.5662 89.2514 19.5662C89.9519 19.5662 90.5878 19.4003 91.1592 19.0685C91.7491 18.7183 92.2099 18.2483 92.5416 17.6584C92.8734 17.0501 93.0393 16.3497 93.0393 15.5571C93.0393 14.7645 92.8734 14.0641 92.5416 13.4558C92.2099 12.8475 91.7491 12.3775 91.1592 12.0457C90.5878 11.7139 89.9519 11.548 89.2514 11.548C88.5326 11.548 87.8874 11.7139 87.316 12.0457C86.7446 12.3775 86.293 12.8475 85.9612 13.4558C85.6294 14.0641 85.4635 14.7645 85.4635 15.5571Z" fill="white"/>
<path d="M76.4809 14.1747C76.4809 13.2346 76.2874 12.5249 75.9003 12.0457C75.5132 11.5665 74.9142 11.3268 74.1031 11.3268C73.5502 11.3268 73.0617 11.4466 72.6377 11.6863C72.2138 11.9075 71.882 12.2392 71.6424 12.6816C71.4028 13.1056 71.2829 13.6033 71.2829 14.1747V21.9163H68.2969V9.19788H71.2829V11.1609C71.6885 10.4052 72.2046 9.84301 72.8313 9.47436C73.4764 9.10571 74.2414 8.92139 75.1261 8.92139C76.5639 8.92139 77.6606 9.36377 78.4163 10.2485C79.1721 11.1149 79.5499 12.313 79.5499 13.8429V21.9163H76.4809V14.1747Z" fill="white"/>
<path d="M57.1481 17.7414C57.5536 18.1837 57.9592 18.5708 58.3647 18.9026C58.7886 19.216 59.2126 19.4556 59.6365 19.6215C60.0605 19.7689 60.4844 19.8427 60.9084 19.8427C61.4429 19.8427 61.8576 19.7229 62.1526 19.4832C62.4659 19.2436 62.6226 18.9118 62.6226 18.4879C62.6226 18.1192 62.5028 17.8059 62.2632 17.5478C62.0235 17.2713 61.6917 17.0409 61.2678 16.8566C60.8439 16.6538 60.3462 16.4511 59.7748 16.2483C59.2034 16.0271 58.6319 15.7691 58.0605 15.4742C57.5076 15.1608 57.0467 14.7553 56.6781 14.2576C56.3279 13.7599 56.1528 13.1332 56.1528 12.3775C56.1528 11.6033 56.3463 10.9582 56.7334 10.4421C57.1389 9.92596 57.6735 9.54809 58.337 9.30847C59.019 9.05041 59.7471 8.92139 60.5213 8.92139C61.2217 8.92139 61.8761 9.02277 62.4843 9.22552C63.1111 9.42828 63.6732 9.69555 64.1709 10.0273C64.6686 10.3591 65.0926 10.737 65.4428 11.1609L63.7838 12.9305C63.3599 12.4328 62.853 12.0273 62.2632 11.7139C61.6733 11.4006 61.065 11.2439 60.4383 11.2439C60.0144 11.2439 59.6642 11.3361 59.3877 11.5204C59.1112 11.7047 58.9729 11.972 58.9729 12.3222C58.9729 12.6171 59.0928 12.8844 59.3324 13.124C59.5904 13.3452 59.9222 13.548 60.3277 13.7323C60.7517 13.9166 61.2217 14.1101 61.7378 14.3129C62.4383 14.5894 63.0834 14.8935 63.6732 15.2253C64.2631 15.5571 64.7331 15.9626 65.0833 16.4419C65.452 16.9211 65.6363 17.5478 65.6363 18.322C65.6363 19.5201 65.2216 20.4878 64.3921 21.2251C63.5811 21.944 62.4751 22.3034 61.0743 22.3034C60.2079 22.3034 59.4061 22.1744 58.6688 21.9163C57.9499 21.6398 57.314 21.2896 56.761 20.8657C56.2265 20.4233 55.7749 19.9625 55.4062 19.4832L57.1481 17.7414Z" fill="white"/>
<path d="M40.0254 15.5571C40.0254 14.2484 40.3203 13.0964 40.9102 12.101C41.5184 11.1056 42.3387 10.3315 43.3709 9.7785C44.4031 9.20709 45.5736 8.92139 46.8823 8.92139C48.191 8.92139 49.3523 9.20709 50.3661 9.7785C51.3983 10.3315 52.2185 11.1056 52.8268 12.101C53.4351 13.0964 53.7392 14.2484 53.7392 15.5571C53.7392 16.8474 53.4351 17.9994 52.8268 19.0132C52.2185 20.0086 51.3983 20.7919 50.3661 21.3634C49.3523 21.9163 48.191 22.1928 46.8823 22.1928C45.5736 22.1928 44.4031 21.9163 43.3709 21.3634C42.3387 20.7919 41.5184 20.0086 40.9102 19.0132C40.3203 17.9994 40.0254 16.8474 40.0254 15.5571ZM43.0944 15.5571C43.0944 16.3497 43.2603 17.0501 43.5921 17.6584C43.9239 18.2483 44.3755 18.7183 44.9469 19.0685C45.5183 19.4003 46.1634 19.5662 46.8823 19.5662C47.5827 19.5662 48.2187 19.4003 48.7901 19.0685C49.3799 18.7183 49.8407 18.2483 50.1725 17.6584C50.5043 17.0501 50.6702 16.3497 50.6702 15.5571C50.6702 14.7645 50.5043 14.0641 50.1725 13.4558C49.8407 12.8475 49.3799 12.3775 48.7901 12.0457C48.2187 11.7139 47.5827 11.548 46.8823 11.548C46.1634 11.548 45.5183 11.7139 44.9469 12.0457C44.3755 12.3775 43.9239 12.8475 43.5921 13.4558C43.2603 14.0641 43.0944 14.7645 43.0944 15.5571Z" fill="white"/>
</svg>
