<svg width="752" height="125" viewBox="0 0 752 125" fill="none" xmlns="http://www.w3.org/2000/svg">
<mask id="path-1-inside-1_6_6560" fill="white">
<path d="M0.306641 0.411285H751.458V124.411H0.306641V0.411285Z"/>
</mask>
<path d="M0.306641 0.411285H751.458V124.411H0.306641V0.411285Z" fill="black"/>
<path d="M751.458 121.411H0.306641V127.411H751.458V121.411Z" fill="black" mask="url(#path-1-inside-1_6_6560)"/>
<path d="M66.0781 47.6183C66.0781 52.5454 65.0703 57.3045 63.0547 61.8957C61.0391 66.4308 58.3236 70.4621 54.9082 73.9894C51.5488 77.5167 47.6016 80.3442 43.0664 82.4718C38.5872 84.5434 33.8561 85.5792 28.873 85.5792H28.7051C27.6973 85.5792 26.8574 85.1313 26.1855 84.2355C25.5697 83.2837 25.0378 82.1079 24.5898 80.7082C24.1419 79.3084 23.806 77.7407 23.582 76.005C23.3581 74.2694 23.1901 72.5897 23.0781 70.966C22.9661 69.2863 22.9102 67.8026 22.9102 66.5148C22.9102 65.171 22.9102 64.1632 22.9102 63.4914C22.9102 61.5877 22.9382 59.7121 22.9941 57.8644C23.0501 55.9608 23.1341 54.0571 23.2461 52.1535C23.2461 51.5376 23.2741 50.6418 23.3301 49.466C23.4421 48.2342 23.554 46.8625 23.666 45.3507C23.778 43.839 23.918 42.2713 24.0859 40.6476C24.2539 38.9679 24.4219 37.4282 24.5898 36.0285C24.8138 34.5727 25.0098 33.313 25.1777 32.2492C25.4017 31.1294 25.6536 30.3735 25.9336 29.9816C26.6615 28.7498 27.7812 27.658 29.293 26.7062C30.8047 25.7544 32.4284 24.9705 34.1641 24.3546C35.9557 23.7388 37.7474 23.2908 39.5391 23.0109C41.3867 22.675 42.9824 22.507 44.3262 22.507C48.0215 22.507 51.2129 23.2069 53.9004 24.6066C56.6439 25.9503 58.9115 27.798 60.7031 30.1496C62.5508 32.4451 63.8945 35.1046 64.7344 38.1281C65.6302 41.1515 66.0781 44.3149 66.0781 47.6183ZM51.9687 50.0539C51.9687 48.8221 51.7448 47.5623 51.2969 46.2746C50.849 44.9868 50.2051 43.811 49.3652 42.7472C48.5814 41.6834 47.6016 40.8436 46.4258 40.2277C45.306 39.5558 44.0462 39.2199 42.6465 39.2199C41.4707 39.2199 40.2669 39.4998 39.0352 40.0597C38.7552 40.2277 38.5033 40.7596 38.2793 41.6554C38.0553 42.4953 37.8594 43.5311 37.6914 44.7628C37.5794 45.9946 37.4674 47.3384 37.3555 48.7941C37.2435 50.2498 37.1595 51.6496 37.1035 52.9933C37.1035 54.2811 37.0755 55.4289 37.0195 56.4367C37.0195 57.4445 37.0195 58.1164 37.0195 58.4523C37.0195 59.0122 37.0195 59.852 37.0195 60.9718C37.0195 62.0356 37.0475 63.0994 37.1035 64.1632C37.2155 65.227 37.3275 66.1509 37.4395 66.9347C37.5514 67.7186 37.7474 68.1105 38.0273 68.1105C39.707 68.1105 41.3587 67.4666 42.9824 66.1789C44.6621 64.8351 46.1738 63.2114 47.5176 61.3078C48.8613 59.4041 49.9251 57.4165 50.709 55.3449C51.5488 53.2733 51.9687 51.5096 51.9687 50.0539ZM85.8144 87.8468C82.959 87.8468 80.4674 87.091 78.3398 85.5792C76.2122 84.0675 74.4206 82.1359 72.9648 79.7843C71.5091 77.4328 70.4173 74.8292 69.6895 71.9738C68.9616 69.0623 68.5977 66.2069 68.5977 63.4074C68.5977 60.4399 68.9616 57.3885 69.6895 54.2531C70.4173 51.0617 71.5371 48.1782 73.0488 45.6027C74.5605 42.9712 76.4922 40.8436 78.8437 39.2199C81.1953 37.5402 83.9948 36.7003 87.2422 36.7003C90.3776 36.7003 93.0371 37.5682 95.2207 39.3039C97.4603 40.9835 99.2519 43.1112 100.596 45.6867C101.939 48.2062 102.891 50.9777 103.451 54.0011C104.011 57.0246 104.207 59.88 104.039 62.5675C103.871 65.535 103.395 68.5304 102.611 71.5539C101.883 74.5773 100.792 77.2928 99.3359 79.7003C97.8802 82.1079 96.0325 84.0675 93.793 85.5792C91.5534 87.091 88.8939 87.8468 85.8144 87.8468ZM86.6543 49.8859C85.8144 49.8859 85.0586 50.3338 84.3867 51.2296C83.7708 52.1255 83.2389 53.2173 82.791 54.505C82.3991 55.7928 82.0911 57.1645 81.8672 58.6203C81.6432 60.02 81.5312 61.2518 81.5312 62.3156C81.5312 63.6593 81.6432 65.1151 81.8672 66.6828C82.1471 68.2505 82.5111 69.7062 82.959 71.05C83.4069 72.3377 83.9388 73.4295 84.5547 74.3253C85.2266 75.1652 85.9824 75.5851 86.8223 75.5851C87.7181 75.5851 88.474 75.1652 89.0898 74.3253C89.7617 73.4855 90.2936 72.4217 90.6855 71.1339C91.0775 69.8462 91.3574 68.4464 91.5254 66.9347C91.6934 65.367 91.7773 63.9113 91.7773 62.5675C91.7773 61.3358 91.6654 59.992 91.4414 58.5363C91.2174 57.0246 90.8815 55.6248 90.4336 54.3371C90.0417 53.0493 89.5098 51.9855 88.8379 51.1457C88.222 50.3058 87.4941 49.8859 86.6543 49.8859ZM146.367 56.7726C146.367 59.6281 146.311 62.4835 146.199 65.339C146.143 68.1945 146.003 71.05 145.779 73.9054C145.611 76.369 145.387 79.0005 145.107 81.8C144.827 84.5994 144.38 87.3709 143.764 90.1144C143.148 92.9139 142.336 95.5734 141.328 98.0929C140.32 100.668 138.977 102.936 137.297 104.896C135.673 106.855 133.686 108.423 131.334 109.599C128.982 110.775 126.183 111.362 122.936 111.362C121.424 111.362 119.716 111.11 117.812 110.607C115.965 110.159 114.201 109.487 112.521 108.591C110.898 107.695 109.498 106.575 108.322 105.232C107.202 103.944 106.643 102.432 106.643 100.696C106.643 99.4087 107.09 98.2049 107.986 97.0851C108.938 96.0213 110.142 95.4894 111.598 95.4894C112.493 95.4894 113.333 95.6294 114.117 95.9093C114.957 96.2453 115.769 96.6092 116.553 97.0011C117.393 97.3931 118.176 97.729 118.904 98.0089C119.688 98.3449 120.472 98.5128 121.256 98.5128C123.327 98.5128 125.063 97.9809 126.463 96.9171C127.863 95.9093 128.982 94.5936 129.822 92.9699C130.662 91.4022 131.278 89.6665 131.67 87.7628C132.118 85.9152 132.426 84.1515 132.594 82.4718C131.474 83.7596 130.158 84.6554 128.646 85.1593C127.191 85.6072 125.651 85.8312 124.027 85.8312C121.06 85.8312 118.54 85.3273 116.469 84.3195C114.397 83.2557 112.717 81.8279 111.43 80.0363C110.142 78.1886 109.19 76.061 108.574 73.6535C107.958 71.2459 107.65 68.6424 107.65 65.8429C107.65 64.1072 107.818 62.1476 108.154 59.964C108.546 57.7804 109.106 55.5688 109.834 53.3293C110.562 51.0897 111.458 48.9061 112.521 46.7785C113.641 44.6509 114.929 42.7752 116.385 41.1515C117.84 39.5278 119.464 38.2121 121.256 37.2043C123.104 36.1964 125.119 35.6925 127.303 35.6925C129.43 35.6925 131.306 36.3084 132.93 37.5402C134.609 38.772 135.589 40.5076 135.869 42.7472C136.485 41.5714 137.297 40.4237 138.305 39.3039C139.312 38.1281 140.544 37.5402 142 37.5402C142.784 37.5402 143.428 37.9321 143.932 38.716C144.492 39.4998 144.911 40.5356 145.191 41.8234C145.527 43.0552 145.779 44.4269 145.947 45.9386C146.115 47.3944 146.227 48.8501 146.283 50.3058C146.339 51.7056 146.367 52.9933 146.367 54.1691C146.367 55.3449 146.367 56.2127 146.367 56.7726ZM133.602 62.2316C133.602 61.3918 133.462 60.3 133.182 58.9562C132.958 57.6125 132.594 56.3247 132.09 55.0929C131.642 53.8612 131.054 52.7973 130.326 51.9015C129.598 51.0057 128.73 50.5578 127.723 50.5578C126.435 50.5578 125.287 51.0057 124.279 51.9015C123.327 52.7973 122.516 53.8891 121.844 55.1769C121.172 56.4087 120.64 57.7524 120.248 59.2082C119.912 60.6079 119.744 61.8117 119.744 62.8195C119.744 63.5473 119.8 64.5272 119.912 65.7589C120.024 66.9907 120.248 68.1945 120.584 69.3703C120.976 70.546 121.48 71.5539 122.096 72.3937C122.712 73.2335 123.523 73.6535 124.531 73.6535C126.043 73.6535 127.359 73.2895 128.479 72.5617C129.598 71.8338 130.522 70.91 131.25 69.7902C132.034 68.6704 132.622 67.4386 133.014 66.0949C133.406 64.7511 133.602 63.4634 133.602 62.2316ZM187.52 70.4621C187.52 72.3657 186.904 74.2414 185.672 76.089C184.496 77.8807 182.984 79.5044 181.137 80.9601C179.345 82.3598 177.413 83.5076 175.342 84.4035C173.27 85.2433 171.367 85.6632 169.631 85.6632C166.663 85.6632 164.004 84.9354 161.652 83.4796C159.357 81.9679 157.425 80.0643 155.857 77.7687C154.29 75.4731 153.086 72.9536 152.246 70.2101C151.462 67.4106 151.07 64.6951 151.07 62.0636C151.07 59.2641 151.462 56.2687 152.246 53.0773C153.03 49.8859 154.206 46.9464 155.773 44.2589C157.397 41.5714 159.413 39.3319 161.82 37.5402C164.284 35.7485 167.195 34.8527 170.555 34.8527C172.458 34.8527 174.278 35.1886 176.014 35.8605C177.749 36.4764 179.261 37.3722 180.549 38.548C181.837 39.7238 182.872 41.1235 183.656 42.7472C184.44 44.3709 184.832 46.1906 184.832 48.2062C184.832 50.8377 184.272 53.3013 183.152 55.5968C182.033 57.8924 180.549 59.88 178.701 61.5597C176.854 63.2394 174.726 64.6112 172.318 65.675C169.911 66.6828 167.447 67.2427 164.928 67.3546C165.152 68.9783 165.796 70.1541 166.859 70.882C167.979 71.6098 169.295 71.9738 170.807 71.9738C171.926 71.9738 173.018 71.6938 174.082 71.1339C175.146 70.574 176.182 69.9582 177.189 69.2863C178.197 68.5584 179.177 67.9145 180.129 67.3546C181.137 66.7947 182.145 66.5148 183.152 66.5148C184.272 66.5148 185.28 66.8787 186.176 67.6066C187.072 68.3345 187.52 69.2863 187.52 70.4621ZM173.914 49.8859C173.914 49.158 173.718 48.4022 173.326 47.6183C172.934 46.8345 172.318 46.4425 171.479 46.4425C170.247 46.4425 169.211 46.7785 168.371 47.4503C167.531 48.0662 166.831 48.8781 166.271 49.8859C165.712 50.8377 165.264 51.8735 164.928 52.9933C164.648 54.1131 164.48 55.1489 164.424 56.1007C165.208 55.9328 166.132 55.7088 167.195 55.4289C168.315 55.1489 169.351 54.785 170.303 54.3371C171.311 53.8332 172.15 53.2173 172.822 52.4894C173.55 51.7615 173.914 50.8937 173.914 49.8859ZM214.73 87.7628C213.779 87.7628 213.023 87.3149 212.463 86.4191C211.903 85.5792 211.483 84.5994 211.203 83.4796C210.923 82.3598 210.727 81.2401 210.615 80.1203C210.559 78.9445 210.531 78.0487 210.531 77.4328C210.531 75.7531 210.615 74.0734 210.783 72.3937C211.007 70.714 211.231 69.0343 211.455 67.3546C211.735 65.675 211.959 63.9953 212.127 62.3156C212.351 60.6359 212.463 58.9562 212.463 57.2765C212.463 56.6046 212.435 55.8768 212.379 55.0929C212.323 54.3091 212.183 53.5812 211.959 52.9093C211.791 52.1815 211.483 51.5936 211.035 51.1457C210.587 50.6977 209.999 50.4738 209.271 50.4738C208.768 50.4738 208.208 50.8937 207.592 51.7335C206.976 52.5174 206.388 53.4412 205.828 54.505C205.324 55.5128 204.876 56.5487 204.484 57.6125C204.148 58.6203 203.98 59.3761 203.98 59.88C203.98 61.1118 203.98 62.3716 203.98 63.6593C204.036 64.8911 204.064 66.1509 204.064 67.4386V72.3097C204.008 73.3175 203.924 74.3533 203.812 75.4171C203.701 76.4809 203.533 77.5167 203.309 78.5246C203.141 79.5324 202.889 80.5122 202.553 81.464C202.217 82.3598 201.769 83.1717 201.209 83.8996C200.705 84.5714 200.089 85.1313 199.361 85.5792C198.633 86.0272 197.766 86.2511 196.758 86.2511C195.638 86.2511 194.714 85.8872 193.986 85.1593C193.258 84.4315 192.671 83.5076 192.223 82.3878C191.775 81.2121 191.439 79.9243 191.215 78.5246C191.047 77.0688 190.907 75.6691 190.795 74.3253C190.739 72.9256 190.711 71.6658 190.711 70.546C190.767 69.3703 190.795 68.4464 190.795 67.7746V63.8273C190.795 61.6997 190.739 59.6001 190.627 57.5285C190.571 55.4569 190.543 53.3852 190.543 51.3136C190.543 50.1938 190.543 48.7661 190.543 47.0304C190.599 45.2947 190.823 43.6151 191.215 41.9914C191.607 40.3117 192.251 38.8839 193.146 37.7082C194.042 36.5324 195.358 35.9445 197.094 35.9445C197.878 35.9445 198.577 36.1964 199.193 36.7003C199.809 37.2043 200.341 37.8201 200.789 38.548C201.293 39.2759 201.685 40.0597 201.965 40.8996C202.301 41.7394 202.553 42.4673 202.721 43.0832C203.281 42.2993 203.924 41.5434 204.652 40.8156C205.436 40.0877 206.304 39.4438 207.256 38.8839C208.208 38.324 209.271 37.8761 210.447 37.5402C211.623 37.2043 212.967 37.0363 214.479 37.0363C217.334 37.0363 219.546 37.7362 221.113 39.1359C222.737 40.4796 223.913 42.1873 224.641 44.2589C225.424 46.2746 225.9 48.4582 226.068 50.8097C226.236 53.1613 226.32 55.2889 226.32 57.1925C226.32 58.1444 226.236 59.5721 226.068 61.4757C225.9 63.3234 225.62 65.395 225.229 67.6906C224.893 69.9302 224.417 72.2537 223.801 74.6613C223.185 77.0128 222.457 79.1684 221.617 81.1281C220.777 83.0877 219.77 84.6834 218.594 85.9152C217.474 87.147 216.186 87.7628 214.73 87.7628ZM246.98 87.8468C244.125 87.8468 241.633 87.091 239.506 85.5792C237.378 84.0675 235.587 82.1359 234.131 79.7843C232.675 77.4328 231.583 74.8292 230.855 71.9738C230.128 69.0623 229.764 66.2069 229.764 63.4074C229.764 60.4399 230.128 57.3885 230.855 54.2531C231.583 51.0617 232.703 48.1782 234.215 45.6027C235.727 42.9712 237.658 40.8436 240.01 39.2199C242.361 37.5402 245.161 36.7003 248.408 36.7003C251.544 36.7003 254.203 37.5682 256.387 39.3039C258.626 40.9835 260.418 43.1112 261.762 45.6867C263.105 48.2062 264.057 50.9777 264.617 54.0011C265.177 57.0246 265.373 59.88 265.205 62.5675C265.037 65.535 264.561 68.5304 263.777 71.5539C263.049 74.5773 261.958 77.2928 260.502 79.7003C259.046 82.1079 257.199 84.0675 254.959 85.5792C252.719 87.091 250.06 87.8468 246.98 87.8468ZM247.82 49.8859C246.98 49.8859 246.225 50.3338 245.553 51.2296C244.937 52.1255 244.405 53.2173 243.957 54.505C243.565 55.7928 243.257 57.1645 243.033 58.6203C242.809 60.02 242.697 61.2518 242.697 62.3156C242.697 63.6593 242.809 65.1151 243.033 66.6828C243.313 68.2505 243.677 69.7062 244.125 71.05C244.573 72.3377 245.105 73.4295 245.721 74.3253C246.393 75.1652 247.148 75.5851 247.988 75.5851C248.884 75.5851 249.64 75.1652 250.256 74.3253C250.928 73.4855 251.46 72.4217 251.852 71.1339C252.243 69.8462 252.523 68.4464 252.691 66.9347C252.859 65.367 252.943 63.9113 252.943 62.5675C252.943 61.3358 252.831 59.992 252.607 58.5363C252.383 57.0246 252.048 55.6248 251.6 54.3371C251.208 53.0493 250.676 51.9855 250.004 51.1457C249.388 50.3058 248.66 49.8859 247.82 49.8859ZM320.467 57.6964C320.467 58.7602 320.467 60.216 320.467 62.0636C320.467 63.8553 320.411 65.8149 320.299 67.9425C320.243 70.0701 320.075 72.2257 319.795 74.4093C319.515 76.5369 319.067 78.4686 318.451 80.2042C317.891 81.9399 317.163 83.3677 316.268 84.4875C315.372 85.6072 314.224 86.1671 312.824 86.1671C311.592 86.1671 310.641 85.6632 309.969 84.6554C309.353 83.5916 308.905 82.3598 308.625 80.9601C308.345 79.5604 308.177 78.1326 308.121 76.6769C308.121 75.2212 308.121 74.0734 308.121 73.2335C308.121 70.714 308.205 68.2505 308.373 65.8429C308.541 63.4354 308.625 60.9718 308.625 58.4523C308.625 58.1723 308.625 57.6684 308.625 56.9406C308.625 56.2127 308.569 55.4848 308.457 54.757C308.345 54.0291 308.149 53.3852 307.869 52.8253C307.645 52.2654 307.281 51.9855 306.777 51.9855C305.77 51.9855 304.958 52.5174 304.342 53.5812C303.726 54.589 303.222 55.7928 302.83 57.1925C302.438 58.5923 302.158 59.992 301.99 61.3918C301.822 62.7355 301.71 63.7433 301.654 64.4152C301.542 65.1431 301.43 66.2348 301.318 67.6906C301.262 69.1463 301.15 70.742 300.982 72.4777C300.87 74.2134 300.646 76.005 300.311 77.8527C300.031 79.6444 299.639 81.296 299.135 82.8078C298.687 84.2635 298.099 85.4673 297.371 86.4191C296.643 87.3709 295.747 87.8468 294.684 87.8468C293.34 87.8468 292.304 87.2589 291.576 86.0832C290.848 84.9074 290.316 83.5356 289.98 81.9679C289.645 80.4002 289.421 78.8045 289.309 77.1808C289.253 75.5571 289.225 74.2973 289.225 73.4015C289.225 72.4497 289.225 71.5259 289.225 70.63C289.281 69.7342 289.309 68.8104 289.309 67.8585C289.309 67.4666 289.309 66.8227 289.309 65.9269C289.309 65.0311 289.281 64.0513 289.225 62.9875C289.225 61.8677 289.169 60.7199 289.057 59.5441C289.001 58.3683 288.889 57.3045 288.721 56.3527C288.553 55.3449 288.301 54.533 287.965 53.9171C287.629 53.3013 287.237 52.9933 286.789 52.9933C286.061 52.9933 285.389 53.4692 284.773 54.421C284.158 55.3169 283.626 56.4087 283.178 57.6964C282.73 58.9282 282.366 60.16 282.086 61.3918C281.862 62.6235 281.75 63.5194 281.75 64.0793V64.5832C281.75 67.2707 281.918 69.9022 282.254 72.4777C282.59 75.0532 282.758 77.6847 282.758 80.3722C282.758 81.9399 282.254 83.3957 281.246 84.7394C280.238 86.0272 278.839 86.671 277.047 86.671C275.759 86.671 274.695 86.1951 273.855 85.2433C273.016 84.2355 272.316 82.9477 271.756 81.38C271.196 79.8123 270.748 78.1046 270.412 76.257C270.132 74.3533 269.936 72.5057 269.824 70.714C269.712 68.8664 269.628 67.2147 269.572 65.7589C269.572 64.2472 269.572 63.1274 269.572 62.3996C269.572 61.5597 269.544 60.3279 269.488 58.7043C269.488 57.0806 269.516 55.3169 269.572 53.4132C269.684 51.5096 269.852 49.5779 270.076 47.6183C270.3 45.6027 270.664 43.783 271.168 42.1593C271.672 40.5356 272.316 39.2199 273.1 38.2121C273.939 37.1483 275.003 36.6164 276.291 36.6164C277.747 36.6164 278.923 37.0083 279.818 37.7921C280.77 38.576 281.246 39.7518 281.246 41.3195C281.246 41.6554 281.218 41.9914 281.162 42.3273C281.162 42.6632 281.134 42.9712 281.078 43.2511C281.694 42.3553 282.45 41.4595 283.346 40.5636C284.242 39.6118 285.193 38.772 286.201 38.0441C287.265 37.2602 288.385 36.6444 289.561 36.1964C290.736 35.6925 291.912 35.4406 293.088 35.4406C294.208 35.4406 295.215 35.7485 296.111 36.3644C297.007 36.9803 297.791 37.7641 298.463 38.716C299.135 39.6118 299.695 40.5916 300.143 41.6554C300.59 42.7192 300.898 43.727 301.066 44.6789C301.626 43.671 302.298 42.6632 303.082 41.6554C303.922 40.5916 304.818 39.6678 305.77 38.8839C306.721 38.1001 307.757 37.4562 308.877 36.9523C310.053 36.4484 311.256 36.1964 312.488 36.1964C313.664 36.1964 314.672 36.6164 315.512 37.4562C316.352 38.296 317.079 39.3878 317.695 40.7316C318.311 42.0194 318.787 43.5031 319.123 45.1828C319.459 46.8065 319.739 48.4302 319.963 50.0539C320.187 51.6216 320.327 53.1053 320.383 54.505C320.439 55.8488 320.467 56.9126 320.467 57.6964ZM339.867 26.7902C339.867 27.574 339.643 28.2739 339.195 28.8898C338.803 29.5057 338.271 30.0656 337.6 30.5695C336.928 31.0174 336.2 31.3813 335.416 31.6613C334.632 31.8852 333.904 31.9972 333.232 31.9972C332.113 31.9972 331.133 31.7173 330.293 31.1574C329.453 30.5975 329.033 29.7296 329.033 28.5539C329.033 27.714 329.229 26.9862 329.621 26.3703C330.069 25.6984 330.601 25.1665 331.217 24.7746C331.833 24.3266 332.533 23.9907 333.316 23.7668C334.1 23.5428 334.856 23.4308 335.584 23.4308C336.648 23.4308 337.628 23.6828 338.523 24.1867C339.419 24.6906 339.867 25.5584 339.867 26.7902ZM340.539 55.3449C340.539 56.1287 340.539 56.9686 340.539 57.8644C340.539 58.7043 340.511 59.5161 340.455 60.3C340.399 61.2518 340.371 62.5395 340.371 64.1632C340.371 65.7309 340.315 67.4386 340.203 69.2863C340.091 71.1339 339.895 73.0096 339.615 74.9132C339.391 76.8169 338.999 78.5526 338.439 80.1203C337.88 81.688 337.124 82.9757 336.172 83.9835C335.276 84.9354 334.128 85.4393 332.728 85.4953C331.665 85.5513 330.769 85.1313 330.041 84.2355C329.313 83.3397 328.697 82.1919 328.193 80.7921C327.745 79.3364 327.409 77.7407 327.186 76.005C326.962 74.2134 326.794 72.5057 326.682 70.882C326.57 69.2023 326.514 67.6626 326.514 66.2628C326.514 64.8631 326.514 63.8273 326.514 63.1554C326.514 62.2596 326.514 60.9998 326.514 59.3761C326.514 57.6964 326.57 55.9048 326.682 54.0011C326.794 52.0975 326.99 50.1658 327.27 48.2062C327.605 46.2466 328.053 44.4549 328.613 42.8312C329.229 41.2075 330.013 39.8918 330.965 38.8839C331.917 37.8761 333.12 37.3722 334.576 37.3722C336.088 37.3722 337.236 38.1281 338.02 39.6398C338.803 41.1515 339.391 42.9152 339.783 44.9308C340.175 46.9464 340.399 48.9621 340.455 50.9777C340.511 52.9373 340.539 54.3931 340.539 55.3449ZM377.66 53.1613C377.66 53.4412 377.632 53.7492 377.576 54.0851C377.52 54.3651 377.436 54.645 377.324 54.925C376.82 56.2127 376.036 57.3045 374.973 58.2003C373.909 59.0402 372.649 59.4601 371.193 59.4601C369.01 59.4601 367.526 58.3683 366.742 56.1847C366.63 55.9048 366.574 55.5968 366.574 55.2609C366.574 54.869 366.546 54.477 366.49 54.0851V51.6496C366.378 50.8657 366.182 50.2498 365.902 49.8019C365.622 49.354 365.146 49.13 364.475 49.13C363.523 49.13 362.599 49.7459 361.703 50.9777C360.863 52.1535 360.107 53.5812 359.436 55.2609C358.82 56.8846 358.316 58.5643 357.924 60.3C357.532 62.0356 357.336 63.4354 357.336 64.4992C357.336 65.339 357.392 66.3748 357.504 67.6066C357.616 68.7824 357.84 69.9302 358.176 71.05C358.512 72.1697 358.96 73.1496 359.52 73.9894C360.135 74.7733 360.919 75.1652 361.871 75.1652C362.823 75.1652 363.691 74.8852 364.475 74.3253C365.314 73.7095 366.126 73.0096 366.91 72.2257C367.638 71.5539 368.422 70.854 369.262 70.1261C370.158 69.3983 371.165 69.0343 372.285 69.0343C373.685 69.0343 374.777 69.5382 375.561 70.546C376.4 71.5539 376.82 72.7016 376.82 73.9894C376.82 75.8931 376.316 77.6847 375.309 79.3644C374.301 80.9881 373.041 82.4158 371.529 83.6476C370.018 84.8234 368.338 85.7472 366.49 86.4191C364.643 87.147 362.879 87.5109 361.199 87.5109C358.176 87.5109 355.6 86.755 353.473 85.2433C351.401 83.7316 349.721 81.8279 348.434 79.5324C347.146 77.1808 346.222 74.6333 345.662 71.8898C345.102 69.1463 344.822 66.5428 344.822 64.0793C344.822 61.2238 345.214 58.1444 345.998 54.841C346.782 51.4816 347.986 48.3742 349.609 45.5187C351.233 42.6632 353.305 40.2837 355.824 38.38C358.4 36.4764 361.451 35.5246 364.978 35.5246C367.162 35.5246 369.038 36.0005 370.605 36.9523C372.229 37.9041 373.545 39.1639 374.553 40.7316C375.617 42.2433 376.4 43.951 376.904 45.8546C377.464 47.7583 377.744 49.6339 377.744 51.4816C377.744 51.7615 377.744 52.0415 377.744 52.3214C377.744 52.6014 377.716 52.8813 377.66 53.1613ZM406.971 39.2199C406.971 40.8436 406.411 42.0474 405.291 42.8312C404.227 43.6151 403.023 44.3709 401.68 45.0988C400.336 45.7707 399.104 46.5825 397.984 47.5343C396.921 48.4862 396.389 49.9139 396.389 51.8175C396.389 52.8253 396.613 53.6932 397.061 54.421C397.564 55.1489 398.152 55.8208 398.824 56.4367C399.552 56.9966 400.336 57.5845 401.176 58.2003C402.016 58.8162 402.771 59.5161 403.443 60.3C404.171 61.0838 404.759 62.0356 405.207 63.1554C405.711 64.2752 405.963 65.647 405.963 67.2707C405.963 69.6222 405.347 71.9458 404.115 74.2414C402.939 76.4809 401.4 78.4966 399.496 80.2882C397.648 82.0239 395.549 83.4237 393.197 84.4875C390.846 85.5513 388.522 86.0832 386.227 86.0832C385.275 86.0832 384.323 85.9992 383.371 85.8312C382.419 85.7192 381.551 85.4673 380.768 85.0753C380.04 84.6834 379.424 84.1515 378.92 83.4796C378.416 82.7518 378.164 81.8279 378.164 80.7082C378.164 79.1404 378.472 77.9367 379.088 77.0968C379.704 76.201 380.488 75.5011 381.439 74.9972C382.391 74.4933 383.399 74.1014 384.463 73.8214C385.583 73.5415 386.618 73.2056 387.57 72.8136C388.522 72.3657 389.306 71.8058 389.922 71.1339C390.538 70.4621 390.846 69.5102 390.846 68.2785C390.846 67.1027 390.37 65.8989 389.418 64.6671C388.522 63.3794 387.514 62.0356 386.395 60.6359C385.275 59.1802 384.239 57.6404 383.287 56.0168C382.391 54.3931 381.943 52.6014 381.943 50.6418C381.943 48.2342 382.419 46.0226 383.371 44.007C384.379 41.9354 385.695 40.1437 387.318 38.632C388.998 37.1203 390.902 35.9445 393.029 35.1046C395.157 34.2088 397.396 33.7609 399.748 33.7609C400.644 33.7609 401.512 33.8449 402.352 34.0128C403.247 34.1808 404.031 34.4888 404.703 34.9367C405.375 35.3286 405.907 35.8885 406.299 36.6164C406.747 37.2882 406.971 38.1561 406.971 39.2199Z" fill="#F5F5EE"/>
<rect x="605.457" y="76.4113" width="36" height="36" rx="18" fill="#F5F5EE"/>
<path d="M619.457 96.4113C619.457 97.207 619.141 97.97 618.578 98.5326C618.016 99.0952 617.253 99.4113 616.457 99.4113C615.661 99.4113 614.898 99.0952 614.336 98.5326C613.773 97.97 613.457 97.207 613.457 96.4113C613.457 95.6413 613.747 94.9413 614.217 94.4113C613.747 93.8813 613.457 93.1813 613.457 92.4113C613.457 91.6157 613.773 90.8526 614.336 90.29C614.898 89.7274 615.661 89.4113 616.457 89.4113C617.253 89.4113 618.016 89.7274 618.578 90.29C619.141 90.8526 619.457 91.6157 619.457 92.4113C620.787 92.4913 622.127 92.5813 623.457 92.5813C624.787 92.5813 626.127 92.4913 627.457 92.4113C627.457 91.6157 627.773 90.8526 628.336 90.29C628.898 89.7274 629.661 89.4113 630.457 89.4113C631.253 89.4113 632.016 89.7274 632.578 90.29C633.141 90.8526 633.457 91.6157 633.457 92.4113C633.457 93.1813 633.167 93.8813 632.697 94.4113C633.167 94.9413 633.457 95.6413 633.457 96.4113C633.457 97.207 633.141 97.97 632.578 98.5326C632.016 99.0952 631.253 99.4113 630.457 99.4113C629.661 99.4113 628.898 99.0952 628.336 98.5326C627.773 97.97 627.457 97.207 627.457 96.4113C626.127 96.3313 624.787 96.2413 623.457 96.2413C622.127 96.2413 620.787 96.3313 619.457 96.4113Z" fill="black"/>
<rect x="650.457" y="76.4113" width="36" height="36" rx="18" fill="#F5F5EE"/>
<path d="M678.242 96.8013L675.742 101.131C675.252 101.991 674.342 102.441 673.422 102.381H671.422V104.381L668.922 99.8813L671.422 95.3813V97.3813H674.242L672.022 93.5313L676.352 91.0313L678.152 94.1513C678.672 94.9213 678.742 95.9513 678.242 96.8013ZM665.632 84.4413H670.632C671.612 84.4413 672.462 85.0113 672.872 85.8313L673.872 87.5713L675.602 86.5713L672.962 90.9813L667.812 91.0713L669.542 90.0713L668.132 87.6213L665.922 91.4713L661.582 88.9713L663.382 85.8513C663.792 85.0213 664.642 84.4413 665.632 84.4413ZM661.472 101.141L658.972 96.8113C658.482 95.9613 658.552 94.9413 659.062 94.1713L660.062 92.4413L658.332 91.4413L663.472 91.5213L666.122 95.9413L664.392 94.9413L662.982 97.3813H667.422V102.381H663.822C663.354 102.415 662.885 102.317 662.469 102.098C662.054 101.879 661.708 101.547 661.472 101.141Z" fill="black"/>
<rect x="695.457" y="76.4113" width="36" height="36" rx="18" fill="#F5F5EE"/>
<path d="M713.186 102.923C712.636 102.923 712.082 102.861 711.524 102.736C710.966 102.612 710.395 102.432 709.811 102.198C710.011 100.182 710.594 98.2983 711.561 96.5483C712.527 94.7983 713.769 93.2566 715.286 91.9233C713.452 92.8566 711.865 94.09 710.524 95.6233C709.182 97.1566 708.245 98.9066 707.711 100.873C707.644 100.823 707.582 100.769 707.524 100.711L707.336 100.523C706.552 99.74 705.957 98.865 705.549 97.8983C705.141 96.9316 704.936 95.9233 704.936 94.8733C704.936 93.74 705.161 92.6566 705.611 91.6233C706.061 90.59 706.686 89.6733 707.486 88.8733C708.836 87.5233 710.586 86.6443 712.736 86.2363C714.886 85.8283 717.902 85.7906 721.786 86.1233C722.086 90.1066 722.036 93.1443 721.636 95.2363C721.236 97.3283 720.369 99.0406 719.036 100.373C718.219 101.19 717.306 101.819 716.298 102.261C715.289 102.703 714.252 102.924 713.186 102.923Z" fill="black"/>
</svg>
