<svg width="256" height="83" viewBox="0 0 256 83" fill="none" xmlns="http://www.w3.org/2000/svg">
<g clip-path="url(#clip0_6_6585)">
<path d="M22.8226 -0.0909424H19.4297V82.2753H22.8226V-0.0909424Z" fill="black"/>
<path d="M32.6652 -0.0911865H30.9688V82.275H32.6652V-0.0911865Z" fill="black"/>
<path d="M37.9386 -0.0915527H36.2422V82.2747H37.9386V-0.0915527Z" fill="black"/>
<path d="M16.2737 -0.0913696H14.9277V82.2749H16.2737V-0.0913696Z" fill="black"/>
<path d="M11.1018 -0.0913086H9.75586V82.2749H11.1018V-0.0913086Z" fill="black"/>
<path d="M46.3547 -0.0912476H44.6582V82.275H46.3547V-0.0912476Z" fill="black"/>
<path d="M72.9183 -0.0915527H69.5254V82.2747H72.9183V-0.0915527Z" fill="black"/>
<path d="M62.2632 -0.0909424H56.1504V82.2753H62.2632V-0.0909424Z" fill="black"/>
<path d="M126.881 -0.0923462L123.488 -0.0923462V82.2739H126.881V-0.0923462Z" fill="black"/>
<path d="M167.898 -0.0913086L161.785 -0.0913086V82.2749H167.898V-0.0913086Z" fill="black"/>
<path d="M96.3019 -0.0911865L94.6055 -0.0911865V82.275H96.3019V-0.0911865Z" fill="black"/>
<path d="M111.977 -0.0914917H110.961V82.2747H111.977V-0.0914917Z" fill="black"/>
<path d="M103.973 -0.0910645L102.957 -0.0910645V82.2752H103.973V-0.0910645Z" fill="black"/>
<path d="M143.173 -0.0913086L142.156 -0.0913086V82.2749H143.173V-0.0913086Z" fill="black"/>
<path d="M152.538 -0.0921021H150.842V82.2741H152.538V-0.0921021Z" fill="black"/>
<path d="M171.839 -0.0908203H170.822V82.2754H171.839V-0.0908203Z" fill="black"/>
<path d="M176.689 -0.0914307L174.992 -0.0914307V82.2748H176.689V-0.0914307Z" fill="black"/>
<path d="M135.161 -0.0923462H134.145V82.2739H135.161V-0.0923462Z" fill="black"/>
<path d="M118.567 -0.0910645H115.195V82.2752H118.567V-0.0910645Z" fill="black"/>
<path d="M87.8976 -0.0908813H86.2012V82.2753H87.8976V-0.0908813Z" fill="black"/>
<path d="M81.0991 -0.0917969H78.7227V82.2744H81.0991V-0.0917969Z" fill="black"/>
<path d="M192.575 -0.0908813H190.879V82.2753H192.575V-0.0908813Z" fill="black"/>
<path d="M200.839 -0.0914307H199.143V82.2748H200.839V-0.0914307Z" fill="black"/>
<path d="M222.08 -0.0906982L219.023 -0.0906982V82.2755H222.08V-0.0906982Z" fill="black"/>
<path d="M233.492 -0.0907593H230.436V82.2755H233.492V-0.0907593Z" fill="black"/>
<path d="M227.105 -0.0911865H225.408V82.275H227.105V-0.0911865Z" fill="black"/>
<path d="M207.26 -0.0909424H206.58V82.2753H207.26V-0.0909424Z" fill="black"/>
<path d="M240.397 -0.0915527H239.717V82.2747H240.397V-0.0915527Z" fill="black"/>
<path d="M246.102 -0.0915527H245.422V82.2747H246.102V-0.0915527Z" fill="black"/>
<path d="M183.229 -0.0917358H179.836V82.2745H183.229V-0.0917358Z" fill="black"/>
</g>
<defs>
<clipPath id="clip0_6_6585">
<rect width="651.41" height="82.2156" fill="white" transform="translate(0.412109 0.0290527)"/>
</clipPath>
</defs>
</svg>
